<svg xmlns="http://www.w3.org/2000/svg" version="1.1" xmlns:xlink="http://www.w3.org/1999/xlink" width="530" height="530"><svg xmlns="http://www.w3.org/2000/svg" version="1.1" xmlns:xlink="http://www.w3.org/1999/xlink" width="530" height="530"><svg xmlns="http://www.w3.org/2000/svg" viewBox="0 0 530 530">
<rect x="0" y="0" width="530" height="530" rx="112" fill="#000000"></rect>
    <g fill="white" transform="translate(143, 90) scale(2.542) translate(-2, -8.7)">
        <path d="M38 2A42 45 0 0 0 38 74A42 45 0 0 0 38 2" transform="rotate(-25 38 74)"></path>
        <path d="M38 2A42 45 0 0 0 38 74A42 45 0 0 0 38 2" transform="translate(100,0) scale(-1,1) rotate(-25 38 74)"></path>
        <path d="M91.57 74 A48 48 0 0 0 8.43 74 Z"></path>
        <path d="M96.48 86 A48 48 0 0 1 96.48 110 L3.52 110 A48 48 0 0 1 3.52 86 Z"></path>
        <path d="M91.57 122 A48 48 0 0 1 8.43 122 Z"></path>
    </g>
</svg></svg><style>@media (prefers-color-scheme: light) { :root { filter: none; } }
@media (prefers-color-scheme: dark) { :root { filter: none; } }
</style></svg>